<?xml version="1.0" encoding="UTF-8" standalone="no"?>
<svg xmlns="http://www.w3.org/2000/svg" width="1200" height="800" viewBox="0 0 1200 800">
  <style>
    .title { font: bold 36px sans-serif; fill: #0b3d91; text-anchor: middle; }
    .footer { font: 18px sans-serif; fill: #000; text-anchor: middle; }
    .axis { stroke: #000; stroke-width: 3; }
    .grid { stroke: #e6e6e6; stroke-width: 1; }
    .square { fill: none; stroke: #16a34a; stroke-width: 5; stroke-linecap: butt; stroke-linejoin: miter; }
    .label { font: 14px sans-serif; fill: #111; }
  </style>

  <!-- Title -->
  <text x="600.0" y="60.0" class="title">SINYAL DIGITAL</text>

  <!-- Axes -->
  <line x1="120" y1="400.0" x2="1080" y2="400.0" class="axis" />
  <line x1="120" y1="60.0" x2="120" y2="740.0" class="axis" />

  <!-- Vertical grid lines -->
  <line x1="120.00" y1="120" x2="120.00" y2="680" class="grid" />
  <text x="120.00" y="420.0" class="label" text-anchor="middle">0</text>
  <line x1="240.00" y1="120" x2="240.00" y2="680" class="grid" />
  <text x="240.00" y="420.0" class="label" text-anchor="middle">1</text>
  <line x1="360.00" y1="120" x2="360.00" y2="680" class="grid" />
  <text x="360.00" y="420.0" class="label" text-anchor="middle">2</text>
  <line x1="480.00" y1="120" x2="480.00" y2="680" class="grid" />
  <text x="480.00" y="420.0" class="label" text-anchor="middle">3</text>
  <line x1="600.00" y1="120" x2="600.00" y2="680" class="grid" />
  <text x="600.00" y="420.0" class="label" text-anchor="middle">4</text>
  <line x1="720.00" y1="120" x2="720.00" y2="680" class="grid" />
  <text x="720.00" y="420.0" class="label" text-anchor="middle">5</text>
  <line x1="840.00" y1="120" x2="840.00" y2="680" class="grid" />
  <text x="840.00" y="420.0" class="label" text-anchor="middle">6</text>
  <line x1="960.00" y1="120" x2="960.00" y2="680" class="grid" />
  <text x="960.00" y="420.0" class="label" text-anchor="middle">7</text>
  <line x1="1080.00" y1="120" x2="1080.00" y2="680" class="grid" />
  <text x="1080.00" y="420.0" class="label" text-anchor="middle">8</text>
  <line x1="120" y1="550.00" x2="1080" y2="550.00" class="grid" />
  <line x1="120" y1="512.50" x2="1080" y2="512.50" class="grid" />
  <line x1="120" y1="475.00" x2="1080" y2="475.00" class="grid" />
  <line x1="120" y1="437.50" x2="1080" y2="437.50" class="grid" />
  <line x1="120" y1="400.00" x2="1080" y2="400.00" class="grid" />
  <line x1="120" y1="362.50" x2="1080" y2="362.50" class="grid" />
  <line x1="120" y1="325.00" x2="1080" y2="325.00" class="grid" />
  <line x1="120" y1="287.50" x2="1080" y2="287.50" class="grid" />
  <line x1="120" y1="250.00" x2="1080" y2="250.00" class="grid" />
  <path d="M 120.00 250.00 L 240.00 250.00 L 240.00 550.00 L 360.00 550.00 L 360.00 250.00 L 360.00 250.00 L 480.00 250.00 L 480.00 550.00 L 600.00 550.00 L 600.00 250.00 L 600.00 250.00 L 720.00 250.00 L 720.00 550.00 L 840.00 550.00 L 840.00 250.00 L 840.00 250.00 L 960.00 250.00 L 960.00 550.00 L 1080.00 550.00" class="square" />
  <text x="80" y="250.00" class="label" text-anchor="end">High</text>
  <text x="80" y="550.00" class="label" text-anchor="end">Low</text>
  <text x="1120" y="405.00" class="label" text-anchor="start">t (waktu)</text>
  <text x="600.0" y="770.0" class="footer">KOMDAT - MINGGU 2</text>
</svg>