<?xml version="1.0" encoding="UTF-8" standalone="no"?>
<svg xmlns="http://www.w3.org/2000/svg" width="1200" height="800" viewBox="0 0 1200 800">
  <style>
    .title { font: bold 36px sans-serif; fill: #0b3d91; text-anchor: middle; }
    .footer { font: 18px sans-serif; fill: #000; text-anchor: middle; }
    .axis { stroke: #000; stroke-width: 3; }
    .grid { stroke: #e6e6e6; stroke-width: 1; }
    .sine { fill: none; stroke: #2563eb; stroke-width: 5; stroke-linecap: round; stroke-linejoin: round; }
    .label { font: 14px sans-serif; fill: #111; }
  </style>

  <!-- Title -->
  <text x="600.0" y="60.0" class="title">SINYAL ANALOG</text>

  <!-- Axes -->
  <line x1="120" y1="400.0" x2="1080" y2="400.0" class="axis" />
  <line x1="120" y1="60.0" x2="120" y2="740.0" class="axis" />

  <!-- X ticks -->
  <!-- draw faint vertical grid lines -->
  <line x1="120.00" y1="120" x2="120.00" y2="680" class="grid" />
  <text x="120.00" y="420.0" class="label" text-anchor="middle">0</text>
  <line x1="240.00" y1="120" x2="240.00" y2="680" class="grid" />
  <text x="240.00" y="420.0" class="label" text-anchor="middle">1</text>
  <line x1="360.00" y1="120" x2="360.00" y2="680" class="grid" />
  <text x="360.00" y="420.0" class="label" text-anchor="middle">2</text>
  <line x1="480.00" y1="120" x2="480.00" y2="680" class="grid" />
  <text x="480.00" y="420.0" class="label" text-anchor="middle">3</text>
  <line x1="600.00" y1="120" x2="600.00" y2="680" class="grid" />
  <text x="600.00" y="420.0" class="label" text-anchor="middle">4</text>
  <line x1="720.00" y1="120" x2="720.00" y2="680" class="grid" />
  <text x="720.00" y="420.0" class="label" text-anchor="middle">5</text>
  <line x1="840.00" y1="120" x2="840.00" y2="680" class="grid" />
  <text x="840.00" y="420.0" class="label" text-anchor="middle">6</text>
  <line x1="960.00" y1="120" x2="960.00" y2="680" class="grid" />
  <text x="960.00" y="420.0" class="label" text-anchor="middle">7</text>
  <line x1="1080.00" y1="120" x2="1080.00" y2="680" class="grid" />
  <text x="1080.00" y="420.0" class="label" text-anchor="middle">8</text>
  <line x1="120" y1="550.00" x2="1080" y2="550.00" class="grid" />
  <line x1="120" y1="512.50" x2="1080" y2="512.50" class="grid" />
  <line x1="120" y1="475.00" x2="1080" y2="475.00" class="grid" />
  <line x1="120" y1="437.50" x2="1080" y2="437.50" class="grid" />
  <line x1="120" y1="400.00" x2="1080" y2="400.00" class="grid" />
  <line x1="120" y1="362.50" x2="1080" y2="362.50" class="grid" />
  <line x1="120" y1="325.00" x2="1080" y2="325.00" class="grid" />
  <line x1="120" y1="287.50" x2="1080" y2="287.50" class="grid" />
  <line x1="120" y1="250.00" x2="1080" y2="250.00" class="grid" />
  <path d="M 120.00 400.00 L 121.92 396.23 L 123.84 392.46 L 125.76 388.70 L 127.68 384.95 L 129.60 381.20 L 131.52 377.47 L 133.44 373.75 L 135.36 370.04 L 137.28 366.36 L 139.20 362.70 L 141.12 359.06 L 143.04 355.44 L 144.96 351.86 L 146.88 348.30 L 148.80 344.78 L 150.72 341.29 L 152.64 337.84 L 154.56 334.43 L 156.48 331.06 L 158.40 327.74 L 160.32 324.46 L 162.24 321.22 L 164.16 318.04 L 166.08 314.91 L 168.00 311.83 L 169.92 308.81 L 171.84 305.85 L 173.76 302.94 L 175.68 300.10 L 177.60 297.32 L 179.52 294.60 L 181.44 291.95 L 183.36 289.37 L 185.28 286.86 L 187.20 284.42 L 189.12 282.06 L 191.04 279.76 L 192.96 277.55 L 194.88 275.41 L 196.80 273.35 L 198.72 271.37 L 200.64 269.47 L 202.56 267.66 L 204.48 265.92 L 206.40 264.28 L 208.32 262.71 L 210.24 261.24 L 212.16 259.85 L 214.08 258.55 L 216.00 257.34 L 217.92 256.22 L 219.84 255.19 L 221.76 254.26 L 223.68 253.41 L 225.60 252.66 L 227.52 252.00 L 229.44 251.43 L 231.36 250.96 L 233.28 250.58 L 235.20 250.30 L 237.12 250.11 L 239.04 250.01 L 240.96 250.01 L 242.88 250.11 L 244.80 250.30 L 246.72 250.58 L 248.64 250.96 L 250.56 251.43 L 252.48 252.00 L 254.40 252.66 L 256.32 253.41 L 258.24 254.26 L 260.16 255.19 L 262.08 256.22 L 264.00 257.34 L 265.92 258.55 L 267.84 259.85 L 269.76 261.24 L 271.68 262.71 L 273.60 264.28 L 275.52 265.92 L 277.44 267.66 L 279.36 269.47 L 281.28 271.37 L 283.20 273.35 L 285.12 275.41 L 287.04 277.55 L 288.96 279.76 L 290.88 282.06 L 292.80 284.42 L 294.72 286.86 L 296.64 289.37 L 298.56 291.95 L 300.48 294.60 L 302.40 297.32 L 304.32 300.10 L 306.24 302.94 L 308.16 305.85 L 310.08 308.81 L 312.00 311.83 L 313.92 314.91 L 315.84 318.04 L 317.76 321.22 L 319.68 324.46 L 321.60 327.74 L 323.52 331.06 L 325.44 334.43 L 327.36 337.84 L 329.28 341.29 L 331.20 344.78 L 333.12 348.30 L 335.04 351.86 L 336.96 355.44 L 338.88 359.06 L 340.80 362.70 L 342.72 366.36 L 344.64 370.04 L 346.56 373.75 L 348.48 377.47 L 350.40 381.20 L 352.32 384.95 L 354.24 388.70 L 356.16 392.46 L 358.08 396.23 L 360.00 400.00 L 361.92 403.77 L 363.84 407.54 L 365.76 411.30 L 367.68 415.05 L 369.60 418.80 L 371.52 422.53 L 373.44 426.25 L 375.36 429.96 L 377.28 433.64 L 379.20 437.30 L 381.12 440.94 L 383.04 444.56 L 384.96 448.14 L 386.88 451.70 L 388.80 455.22 L 390.72 458.71 L 392.64 462.16 L 394.56 465.57 L 396.48 468.94 L 398.40 472.26 L 400.32 475.54 L 402.24 478.78 L 404.16 481.96 L 406.08 485.09 L 408.00 488.17 L 409.92 491.19 L 411.84 494.15 L 413.76 497.06 L 415.68 499.90 L 417.60 502.68 L 419.52 505.40 L 421.44 508.05 L 423.36 510.63 L 425.28 513.14 L 427.20 515.58 L 429.12 517.94 L 431.04 520.24 L 432.96 522.45 L 434.88 524.59 L 436.80 526.65 L 438.72 528.63 L 440.64 530.53 L 442.56 532.34 L 444.48 534.08 L 446.40 535.72 L 448.32 537.29 L 450.24 538.76 L 452.16 540.15 L 454.08 541.45 L 456.00 542.66 L 457.92 543.78 L 459.84 544.81 L 461.76 545.74 L 463.68 546.59 L 465.60 547.34 L 467.52 548.00 L 469.44 548.57 L 471.36 549.04 L 473.28 549.42 L 475.20 549.70 L 477.12 549.89 L 479.04 549.99 L 480.96 549.99 L 482.88 549.89 L 484.80 549.70 L 486.72 549.42 L 488.64 549.04 L 490.56 548.57 L 492.48 548.00 L 494.40 547.34 L 496.32 546.59 L 498.24 545.74 L 500.16 544.81 L 502.08 543.78 L 504.00 542.66 L 505.92 541.45 L 507.84 540.15 L 509.76 538.76 L 511.68 537.29 L 513.60 535.72 L 515.52 534.08 L 517.44 532.34 L 519.36 530.53 L 521.28 528.63 L 523.20 526.65 L 525.12 524.59 L 527.04 522.45 L 528.96 520.24 L 530.88 517.94 L 532.80 515.58 L 534.72 513.14 L 536.64 510.63 L 538.56 508.05 L 540.48 505.40 L 542.40 502.68 L 544.32 499.90 L 546.24 497.06 L 548.16 494.15 L 550.08 491.19 L 552.00 488.17 L 553.92 485.09 L 555.84 481.96 L 557.76 478.78 L 559.68 475.54 L 561.60 472.26 L 563.52 468.94 L 565.44 465.57 L 567.36 462.16 L 569.28 458.71 L 571.20 455.22 L 573.12 451.70 L 575.04 448.14 L 576.96 444.56 L 578.88 440.94 L 580.80 437.30 L 582.72 433.64 L 584.64 429.96 L 586.56 426.25 L 588.48 422.53 L 590.40 418.80 L 592.32 415.05 L 594.24 411.30 L 596.16 407.54 L 598.08 403.77 L 600.00 400.00 L 601.92 396.23 L 603.84 392.46 L 605.76 388.70 L 607.68 384.95 L 609.60 381.20 L 611.52 377.47 L 613.44 373.75 L 615.36 370.04 L 617.28 366.36 L 619.20 362.70 L 621.12 359.06 L 623.04 355.44 L 624.96 351.86 L 626.88 348.30 L 628.80 344.78 L 630.72 341.29 L 632.64 337.84 L 634.56 334.43 L 636.48 331.06 L 638.40 327.74 L 640.32 324.46 L 642.24 321.22 L 644.16 318.04 L 646.08 314.91 L 648.00 311.83 L 649.92 308.81 L 651.84 305.85 L 653.76 302.94 L 655.68 300.10 L 657.60 297.32 L 659.52 294.60 L 661.44 291.95 L 663.36 289.37 L 665.28 286.86 L 667.20 284.42 L 669.12 282.06 L 671.04 279.76 L 672.96 277.55 L 674.88 275.41 L 676.80 273.35 L 678.72 271.37 L 680.64 269.47 L 682.56 267.66 L 684.48 265.92 L 686.40 264.28 L 688.32 262.71 L 690.24 261.24 L 692.16 259.85 L 694.08 258.55 L 696.00 257.34 L 697.92 256.22 L 699.84 255.19 L 701.76 254.26 L 703.68 253.41 L 705.60 252.66 L 707.52 252.00 L 709.44 251.43 L 711.36 250.96 L 713.28 250.58 L 715.20 250.30 L 717.12 250.11 L 719.04 250.01 L 720.96 250.01 L 722.88 250.11 L 724.80 250.30 L 726.72 250.58 L 728.64 250.96 L 730.56 251.43 L 732.48 252.00 L 734.40 252.66 L 736.32 253.41 L 738.24 254.26 L 740.16 255.19 L 742.08 256.22 L 744.00 257.34 L 745.92 258.55 L 747.84 259.85 L 749.76 261.24 L 751.68 262.71 L 753.60 264.28 L 755.52 265.92 L 757.44 267.66 L 759.36 269.47 L 761.28 271.37 L 763.20 273.35 L 765.12 275.41 L 767.04 277.55 L 768.96 279.76 L 770.88 282.06 L 772.80 284.42 L 774.72 286.86 L 776.64 289.37 L 778.56 291.95 L 780.48 294.60 L 782.40 297.32 L 784.32 300.10 L 786.24 302.94 L 788.16 305.85 L 790.08 308.81 L 792.00 311.83 L 793.92 314.91 L 795.84 318.04 L 797.76 321.22 L 799.68 324.46 L 801.60 327.74 L 803.52 331.06 L 805.44 334.43 L 807.36 337.84 L 809.28 341.29 L 811.20 344.78 L 813.12 348.30 L 815.04 351.86 L 816.96 355.44 L 818.88 359.06 L 820.80 362.70 L 822.72 366.36 L 824.64 370.04 L 826.56 373.75 L 828.48 377.47 L 830.40 381.20 L 832.32 384.95 L 834.24 388.70 L 836.16 392.46 L 838.08 396.23 L 840.00 400.00 L 841.92 403.77 L 843.84 407.54 L 845.76 411.30 L 847.68 415.05 L 849.60 418.80 L 851.52 422.53 L 853.44 426.25 L 855.36 429.96 L 857.28 433.64 L 859.20 437.30 L 861.12 440.94 L 863.04 444.56 L 864.96 448.14 L 866.88 451.70 L 868.80 455.22 L 870.72 458.71 L 872.64 462.16 L 874.56 465.57 L 876.48 468.94 L 878.40 472.26 L 880.32 475.54 L 882.24 478.78 L 884.16 481.96 L 886.08 485.09 L 888.00 488.17 L 889.92 491.19 L 891.84 494.15 L 893.76 497.06 L 895.68 499.90 L 897.60 502.68 L 899.52 505.40 L 901.44 508.05 L 903.36 510.63 L 905.28 513.14 L 907.20 515.58 L 909.12 517.94 L 911.04 520.24 L 912.96 522.45 L 914.88 524.59 L 916.80 526.65 L 918.72 528.63 L 920.64 530.53 L 922.56 532.34 L 924.48 534.08 L 926.40 535.72 L 928.32 537.29 L 930.24 538.76 L 932.16 540.15 L 934.08 541.45 L 936.00 542.66 L 937.92 543.78 L 939.84 544.81 L 941.76 545.74 L 943.68 546.59 L 945.60 547.34 L 947.52 548.00 L 949.44 548.57 L 951.36 549.04 L 953.28 549.42 L 955.20 549.70 L 957.12 549.89 L 959.04 549.99 L 960.96 549.99 L 962.88 549.89 L 964.80 549.70 L 966.72 549.42 L 968.64 549.04 L 970.56 548.57 L 972.48 548.00 L 974.40 547.34 L 976.32 546.59 L 978.24 545.74 L 980.16 544.81 L 982.08 543.78 L 984.00 542.66 L 985.92 541.45 L 987.84 540.15 L 989.76 538.76 L 991.68 537.29 L 993.60 535.72 L 995.52 534.08 L 997.44 532.34 L 999.36 530.53 L 1001.28 528.63 L 1003.20 526.65 L 1005.12 524.59 L 1007.04 522.45 L 1008.96 520.24 L 1010.88 517.94 L 1012.80 515.58 L 1014.72 513.14 L 1016.64 510.63 L 1018.56 508.05 L 1020.48 505.40 L 1022.40 502.68 L 1024.32 499.90 L 1026.24 497.06 L 1028.16 494.15 L 1030.08 491.19 L 1032.00 488.17 L 1033.92 485.09 L 1035.84 481.96 L 1037.76 478.78 L 1039.68 475.54 L 1041.60 472.26 L 1043.52 468.94 L 1045.44 465.57 L 1047.36 462.16 L 1049.28 458.71 L 1051.20 455.22 L 1053.12 451.70 L 1055.04 448.14 L 1056.96 444.56 L 1058.88 440.94 L 1060.80 437.30 L 1062.72 433.64 L 1064.64 429.96 L 1066.56 426.25 L 1068.48 422.53 L 1070.40 418.80 L 1072.32 415.05 L 1074.24 411.30 L 1076.16 407.54 L 1078.08 403.77 L 1080.00 400.00" class="sine" />
  <text x="80" y="250.00" class="label" text-anchor="end">A (Amplitudo)</text>
  <text x="1120" y="405.00" class="label" text-anchor="start">t (waktu)</text>
  <text x="600.0" y="770.0" class="footer">KOMDAT - MINGGU 2</text>
</svg>